<?xml version="1.0"?>
<svg version="1.1" xmlns="http://www.w3.org/2000/svg" width="400" height="65" style=""><path fill="#" d="M39.7,58.25c0,0.85-0.5,1.25-1.1,1.25l-3.25,0c-0.8,0-1.15-0.4-1.2-1l-0.1-1.35c-1.4,1.6-4.2,2.95-6.8,2.95c-7.25,0-10.55-5.75-10.55-12.45c0-7,3.9-13.1,10.95-13.1c2.25,0,4.6,0.9,6,2.35l0-11.25c0-0.9,0.25-1.25,1.05-1.35l3.7-0.5c0.05,0,0.45-0.05,0.5-0.05c0.6,0,0.8,0.25,0.8,1l0,33.5z M33.65,52.7l0-10.85c-1-1.35-2.9-2.45-4.8-2.45c-4.05,0-5.85,3.8-5.85,7.9s1.5,7.9,5.55,7.9c1.85,0,4.1-1.25,5.1-2.5z M72.525,58.55c0,0.6-0.4,0.95-1,0.95l-2.4,0c-2.6,0-3.75-1.25-4.1-2.95l-0.1,0c-1.25,1.85-4.5,3.55-7.25,3.55c-7.05,0-10.25-5.8-10.25-12.3c0-8.65,5.2-13.2,10.8-13.2c2.65,0,5.15,1.2,6.4,2.9l0.1-1.35c0.05-0.55,0.45-0.9,1.05-0.9l3.5,0c0.65,0,1.05,0.35,1.05,1.1l0,17.35c0,0.7,0.1,1.2,0.3,1.45c0.15,0.15,0.35,0.2,0.6,0.2l0.4,0c0.6,0,0.9,0.2,0.9,0.85l0,2.35z M64.275,51.75l0-9.65c-1-1.45-3.05-2.55-4.95-2.55c-3.05,0-5.65,2.6-5.65,7.85c0,4.2,1.6,7.75,5.3,7.75c2.45,0,4.55-1.85,5.3-3.4z M100.35,35.95c0,0.15-0.05,0.3-0.1,0.5l-8.75,22.1c-0.3,0.75-0.7,0.95-1.45,0.95l-2.6,0c-0.75,0-1.25-0.2-1.5-0.9l-8.6-22.3c-0.05-0.15-0.1-0.3-0.1-0.45c0-0.4,0.25-0.6,0.9-0.6l4.4,0c0.85,0,1.25,0.35,1.45,1l3.8,11.65c0.5,1.5,0.95,3.15,1.25,4.25l0.05,0c0.25-0.95,0.75-2.7,1.2-4.1l3.9-11.75c0.25-0.85,0.65-1.05,1.55-1.05l3.6,0c0.65,0,1,0.25,1,0.7z M113.775,28.9c0,1.95-1.7,3.15-3.35,3.15s-3.4-1.1-3.4-3.1s1.65-3.2,3.4-3.2c1.7,0,3.35,1.15,3.35,3.15z M113.475,58.25c0,0.9-0.4,1.25-1.25,1.25l-3.5,0c-0.9,0-1.3-0.35-1.3-1.25l0-21.85c0-0.85,0.5-1.15,1.3-1.15l3.5,0c0.8,0,1.25,0.25,1.25,1.15l0,21.85z M144.6,58.25c0,0.85-0.5,1.25-1.1,1.25l-3.25,0c-0.8,0-1.15-0.4-1.2-1l-0.1-1.35c-1.4,1.6-4.2,2.95-6.8,2.95c-7.25,0-10.55-5.75-10.55-12.45c0-7,3.9-13.1,10.95-13.1c2.25,0,4.6,0.9,6,2.35l0-11.25c0-0.9,0.25-1.25,1.05-1.35l3.7-0.5c0.05,0,0.45-0.05,0.5-0.05c0.6,0,0.8,0.25,0.8,1l0,33.5z M138.55,52.7l0-10.85c-1-1.35-2.9-2.45-4.8-2.45c-4.05,0-5.85,3.8-5.85,7.9s1.5,7.9,5.55,7.9c1.85,0,4.1-1.25,5.1-2.5z M160.625,28.9c0,1.95-1.7,3.15-3.35,3.15s-3.4-1.1-3.4-3.1s1.65-3.2,3.4-3.2c1.7,0,3.35,1.15,3.35,3.15z M160.325,58.25c0,0.9-0.4,1.25-1.25,1.25l-3.5,0c-0.9,0-1.3-0.35-1.3-1.25l0-21.85c0-0.85,0.5-1.15,1.3-1.15l3.5,0c0.8,0,1.25,0.25,1.25,1.15l0,21.85z M188.15,57.8c0,0.4-0.25,0.6-0.7,0.8c-2.4,1.1-4.6,1.5-7.25,1.5c-7.7,0-11.95-4.8-11.95-12.5c0-7.75,4.65-13,12.4-13c2.25,0,4.6,0.45,6.7,1.4c0.4,0.2,0.6,0.3,0.6,0.7c0,0.15-0.05,0.45-0.1,0.6l-0.65,2.65c-0.1,0.45-0.3,0.7-0.6,0.7c-0.15,0-0.35-0.1-0.55-0.2c-1.45-0.6-3.05-1.1-4.8-1.1c-4.3,0-6.75,3.05-6.75,7.95c0,4.8,2.2,8.1,6.5,8.1c2.15,0,3.5-0.4,5.25-1.1c0.15-0.05,0.35-0.15,0.5-0.15c0.3,0,0.5,0.25,0.6,0.6l0.65,2.2c0.1,0.35,0.15,0.65,0.15,0.85z M218.775,58.55c0,0.6-0.4,0.95-1,0.95l-2.4,0c-2.6,0-3.75-1.25-4.1-2.95l-0.1,0c-1.25,1.85-4.5,3.55-7.25,3.55c-7.05,0-10.25-5.8-10.25-12.3c0-8.65,5.2-13.2,10.8-13.2c2.65,0,5.15,1.2,6.4,2.9l0.1-1.35c0.05-0.55,0.45-0.9,1.05-0.9l3.5,0c0.65,0,1.05,0.35,1.05,1.1l0,17.35c0,0.7,0.1,1.2,0.3,1.45c0.15,0.15,0.35,0.2,0.6,0.2l0.4,0c0.6,0,0.9,0.2,0.9,0.85l0,2.35z M210.525,51.75l0-9.65c-1-1.45-3.05-2.55-4.95-2.55c-3.05,0-5.65,2.6-5.65,7.85c0,4.2,1.6,7.75,5.3,7.75c2.45,0,4.55-1.85,5.3-3.4z M248.95,47.4c0,6.9-3.55,12.7-11,12.7c-2.25,0-4.95-1.3-6.35-2.85l-0.2,1.65c-0.05,0.45-0.45,0.6-1.1,0.6l-3,0c-0.85,0-1.2-0.4-1.2-1.25l0-32.6c0-0.8,0.2-1.25,1-1.35l3.7-0.5c0.2-0.05,0.35-0.05,0.5-0.05c0.5,0,0.85,0.2,0.85,1l0,12.3c1.6-1.4,4-2.45,6.6-2.45c2.75,0,4.8,0.9,6.4,2.35c2.65,2.35,3.8,6.25,3.8,10.45z M242.7,47.45c0-4.05-1.25-7.75-5.4-7.75c-1.85,0-3.8,1-5.15,2.25l0,10.7c1.2,1.35,3.05,2.45,4.9,2.45c4.35,0,5.65-3.75,5.65-7.65z M278.025,47.3c0,1.2-0.4,1.45-1.65,1.45l-14.65,0c0.4,3.85,3.2,6.5,7.15,6.5c2.1,0,4.3-0.5,6.15-1.2c0.2-0.05,0.35-0.15,0.55-0.15c0.35,0,0.6,0.2,0.7,0.6l0.7,2.55c0.05,0.25,0.1,0.45,0.1,0.6c0,0.35-0.2,0.6-0.8,0.85c-2.45,1.1-5.8,1.6-8.4,1.6c-7.85,0-12.5-5-12.5-12.8c0-7.5,4.95-12.7,12.4-12.7c3.05,0,5.55,1.15,7.3,3c2.3,2.4,2.95,5.55,2.95,8.95l0,0.75z M272.075,44.8l0-0.55c-0.1-2.6-1.6-5-4.65-5c-3.25,0-5.2,2.6-5.6,5.55l10.25,0z M291.6,58.25c0,0.85-0.4,1.25-1.1,1.25l-3.8,0c-0.7,0-1.15-0.35-1.15-1.2l0-32.8c0-0.85,0.35-1.1,1-1.2l3.6-0.5c0.1,0,0.25-0.05,0.35-0.05c0.6,0,1.1,0.3,1.1,1.1l0,33.4z M306.925,58.25c0,0.85-0.4,1.25-1.1,1.25l-3.8,0c-0.7,0-1.15-0.35-1.15-1.2l0-32.8c0-0.85,0.35-1.1,1-1.2l3.6-0.5c0.1,0,0.25-0.05,0.35-0.05c0.6,0,1.1,0.3,1.1,1.1l0,33.4z M338.85,47.35c0,7.2-4.4,12.75-12.2,12.75c-8.15,0-11.9-5.5-11.9-12.8c0-7.2,4.4-12.7,12.2-12.7c8.15,0,11.9,5.4,11.9,12.75z M332.6,47.35c0-4.1-1.3-8-5.7-8c-4.45,0-5.9,3.85-5.9,7.85c0,4.1,1.25,8.15,5.7,8.15c4.4,0,5.9-3.9,5.9-8z"/><path fill="#" d=""/></svg>
